<?xml version="1.0" encoding="UTF-8"?>
<svg width="86px" height="40px" viewBox="0 0 86 40" version="1.1" xmlns="http://www.w3.org/2000/svg" xmlns:xlink="http://www.w3.org/1999/xlink">
    <!-- Generator: Sketch 64 (93537) - https://sketch.com -->
    <title>广告管理平台</title>
    <desc>Created with Sketch.</desc>
    <g id="登录页" stroke="none" stroke-width="1" fill="none" fill-rule="evenodd">
        <g id="广告管理平台" transform="translate(-957.000000, -426.000000)" fill="#108AFF">
            <g id="Group-2" transform="translate(521.000000, 350.000000)">
                <g id="Sign-in-widget">
                    <path d="M496.512821,76 L521.128205,116 L506.769231,116 L489.333,87.667 L471.897436,116 L457.538462,116 L482.153846,76 L496.512821,76 Z M474.974359,76 L476.768385,78.917 L469.589385,90.583 L467.795,87.666 L450.358974,116 L436,116 L460.615385,76 L474.974359,76 Z M488.820513,105.74359 L494.461538,116 L483.179487,116 L488.820513,105.74359 Z M514.888889,77.025641 L514.888692,81.213641 L519.076923,81.2136752 L519.076923,83.6068376 L514.888692,83.606641 L514.888889,87.7948718 L512.495726,87.7948718 L512.495692,83.606641 L508.307692,83.6068376 L508.307692,81.2136752 L512.495692,81.213641 L512.495726,77.025641 L514.888889,77.025641 Z" id="广告管理平台"></path>
                </g>
            </g>
        </g>
    </g>
</svg>